<svg xmlns="http://www.w3.org/2000/svg"  viewBox="0 0 30 30" width="30px" height="30px"><path fill="#b0c1d4" d="M5.906,2.5h18.188c1.881,0,3.406,1.525,3.406,3.406v18.188c0,1.881-1.525,3.406-3.406,3.406H5.906 c-1.881,0-3.406-1.525-3.406-3.406V5.906C2.5,4.025,4.025,2.5,5.906,2.5z"/><path fill="#66798f" d="M24.095,28H5.905C3.752,28,2,26.248,2,24.094V5.906C2,3.752,3.752,2,5.905,2h18.188 C26.248,2,28,3.752,28,5.906v18.188C28,26.248,26.248,28,24.095,28z M5.905,3C4.304,3,3,4.304,3,5.906v18.188 C3,25.696,4.304,27,5.905,27h18.189C25.696,27,27,25.696,27,24.094V5.906C27,4.304,25.696,3,24.094,3H5.905z"/><path fill="#ffb5d2" d="M18.717,12.644c1.094,0.782,2.8,1.391,4.248,1.391V11.25c-0.274,0-0.697-0.178-0.965-0.235v2.192 c-1.448,0-3.003-0.46-4.099-1.242v5.683c0,2.843-2.306,5.296-5.151,5.296c-1.061,0-2.048-0.469-2.867-1.019 c0.935,0.956,2.24,1.696,3.683,1.696c2.844,0,5.151-2.452,5.151-5.295V12.644L18.717,12.644z M19.723,9.834 c-0.559-0.61-0.926-1.565-1.006-2.438V6.984h-0.773C18.138,8.093,18.802,9.26,19.723,9.834L19.723,9.834z M11.683,19.744 c-0.313-0.41-0.481-0.91-0.481-1.426c0-1.301,1.122-2.319,2.423-2.319c0.242,0,0.959,0.001,1.19,0.074V13.13 c-0.27-0.037-0.542-0.053-0.815-0.047v2.223c-0.528-0.028-1.015-0.02-1.258-0.02c-1.301,0-2.356,1.054-2.356,2.355 C10.387,18.56,10.914,19.357,11.683,19.744z"/><path fill="#fff" d="M17.901,11.965c1.094,0.782,2.651,1.242,4.099,1.242v-2.192c-0.808-0.172-1.739-0.594-2.277-1.181	c-0.921-0.574-1.584-1.74-1.778-2.849h-2.03v11.342c-0.005,1.297-1.058,2.347-2.356,2.347c-0.765,0-1.445-0.365-1.876-0.929	c-0.769-0.388-1.296-1.184-1.296-2.103c0-1.301,1.055-2.355,2.356-2.355c0.249,0,0.785-0.008,1.258,0.02v-2.222	c-3.528,0.181-5.972,2.307-5.972,5.244c0,1.401,0.721,2.756,1.856,3.599c0.819,0.55,1.806,1.018,2.867,1.018	c2.844,0,5.151-2.452,5.151-5.295L17.901,11.965L17.901,11.965z"/><g><path fill="#b5ddf5" d="M22,11.015v-0.593c-0.729,0.001-1.658-0.203-2.277-0.589C20.27,10.433,21.206,10.846,22,11.015z M17.944,6.984c-0.019-0.106-0.033-0.159-0.042-0.267V6.047h-2.803v11.602c-0.004,1.297-1.058,2.347-2.356,2.347 c-0.381,0-0.741-0.09-1.06-0.251c0.431,0.565,1.11,0.929,1.876,0.929c1.299,0,2.351-1.05,2.356-2.347V6.984H17.944z M14,13.083 v-0.74c-0.438,0-1.201,0-1.438,0c-2.406,0-5.35,2.462-5.35,5.306c0,1.783,1.093,3.601,2.671,4.277C8.917,21.25,8,19.728,8,18.327 C8,15.52,10.389,13.264,14,13.083z"/></g></svg>